<?xml version="1.0" encoding="utf-8"?><svg xmlns="http://www.w3.org/2000/svg" xmlns:xlink="http://www.w3.org/1999/xlink"><symbol viewBox="0 0 6 5" shape-rendering="geometricPrecision" text-rendering="geometricPrecision" image-rendering="optimizeQuality" fill-rule="evenodd" clip-rule="evenodd" id="galka" xmlns="http://www.w3.org/2000/svg"><defs><style>.astr0{stroke:#2b2a29;stroke-width:1.01222}.afil0{fill:none}</style></defs><path class="afil0 astr0" d="M0 2l2 2 4-4" id="aСлой_x0020_1"/></symbol><symbol id="galka-white" viewBox="0 0 25.6 22.1" xmlns="http://www.w3.org/2000/svg"><style>.bst0{fill:none;stroke:#fff;stroke-width:4}</style><path class="bst0" d="M0 8.9l8.5 8.5L25.6.3" id="bСлой_x0020_1"/></symbol><symbol id="icon-download" viewBox="0 0 32 30.7" xmlns="http://www.w3.org/2000/svg"><style>.cst0,.cst1{fill:none;stroke:#fff;stroke-linecap:round;stroke-miterlimit:10}.cst1{stroke-linejoin:round}</style><path class="cst0" d="M16 12.8v17"/><path class="cst1" d="M20.5 25.8l-4.6 4.4-4.4-4.4m0-6.5h-7s-4-.6-4-5.5 5-6 5-6-.4-2.3 1-3c2.6-1.4 4 1 4 1s3.1-6.9 9-5 5 8 5 8 7.1-.5 7 5.3c-.1 5.7-5 5.2-5 5.2h-6"/></symbol></svg>